<?xml version="1.0" standalone="no"?><!-- Generator: Gravit.io --><svg xmlns="http://www.w3.org/2000/svg" xmlns:xlink="http://www.w3.org/1999/xlink" style="isolation:isolate" viewBox="0 0 220 220" width="220" height="220"><defs><clipPath id="_clipPath_OLlsT9L2unI1NqpvKxwFeTqRwkc835fR"><rect width="220" height="220"/></clipPath></defs><g clip-path="url(#_clipPath_OLlsT9L2unI1NqpvKxwFeTqRwkc835fR)"><path d="M 40 0 L 180 0 C 202.077 0 220 17.923 220 40 L 220 180 C 220 202.077 202.077 220 180 220 L 40 220 C 17.923 220 0 202.077 0 180 L 0 40 C 0 17.923 17.923 0 40 0 Z" style="stroke:none;fill:#F44336;stroke-miterlimit:10;"/><g id="Shutter"><path d=" M 115.076 54.018 L 118.577 54.024 L 118.57 61.019 L 115.078 61.018 L 28.675 60.974 L 25.178 60.982 L 25.181 53.974 L 28.682 53.98 L 115.076 54.018 Z " fill="rgb(255,255,255)"/><path d=" M 155.907 143.097 L 154.126 146.112 L 148.102 142.558 L 149.874 139.548 L 193.743 65.111 L 195.511 62.093 L 201.549 65.651 L 199.767 68.665 L 155.907 143.097 Z " fill="rgb(255,255,255)"/><path d=" M 107.503 206.099 L 109.223 209.149 L 103.133 212.589 L 101.413 209.549 L 58.883 134.339 L 57.153 131.299 L 63.253 127.849 L 64.973 130.899 L 107.503 206.099 Z " fill="rgb(255,255,255)"/><path d=" M 10.494 110.193 C 10.494 55.347 55.022 10.818 109.869 10.818 C 164.715 10.818 209.244 55.347 209.244 110.193 C 209.244 165.04 164.715 209.568 109.869 209.568 C 55.022 209.568 10.494 165.04 10.494 110.193 Z " fill="none" vector-effect="non-scaling-stroke" stroke-width="7" stroke="rgb(255,255,255)" stroke-linejoin="miter" stroke-linecap="square" stroke-miterlimit="3"/><polygon points="140.556,162.8,79.654,163.072,48.967,110.466,79.182,57.587,140.083,57.314,170.77,109.921" fill="none" vector-effect="non-scaling-stroke" stroke-width="7" stroke="rgb(255,255,255)" stroke-linejoin="miter" stroke-linecap="square" stroke-miterlimit="3"/><path d=" M 57.369 110.193 C 57.369 81.218 80.893 57.693 109.869 57.693 C 138.844 57.693 162.369 81.218 162.369 110.193 C 162.369 139.169 138.844 162.693 109.869 162.693 C 80.893 162.693 57.369 139.169 57.369 110.193 Z " fill="none" vector-effect="non-scaling-stroke" stroke-width="7" stroke="rgb(255,255,255)" stroke-linejoin="miter" stroke-linecap="butt" stroke-miterlimit="3"/><path d=" M 159.499 83.523 L 161.229 86.563 L 155.149 90.033 L 153.419 86.993 L 111.999 14.373 L 110.269 11.333 L 116.349 7.863 L 118.079 10.903 L 159.499 83.523 Z " fill="rgb(255,255,255)"/><path d=" M 63.638 78.06 L 65.42 75.046 L 71.444 78.6 L 69.671 81.609 L 25.802 156.046 L 24.035 159.064 L 17.997 155.507 L 19.778 152.492 L 63.638 78.06 Z " fill="rgb(255,255,255)"/><path d=" M 190.8 160.337 L 194.301 160.372 L 194.235 167.367 L 190.743 167.336 L 104.344 166.563 L 100.846 166.541 L 100.908 159.534 L 104.41 159.569 L 190.8 160.337 Z " fill="rgb(255,255,255)"/><path d=" M 78.126 61.068 C 78.126 59.136 79.694 57.568 81.626 57.568 C 83.558 57.568 85.126 59.136 85.126 61.068 C 85.126 63 83.558 64.568 81.626 64.568 C 79.694 64.568 78.126 63 78.126 61.068 Z " fill="rgb(255,255,255)"/><path d=" M 134.235 61.49 C 134.235 59.558 135.803 57.99 137.735 57.99 C 139.667 57.99 141.235 59.558 141.235 61.49 C 141.235 63.422 139.667 64.99 137.735 64.99 C 135.803 64.99 134.235 63.422 134.235 61.49 Z " fill="rgb(255,255,255)"/><path d=" M 162.501 108.951 C 162.501 107.019 164.069 105.451 166.001 105.451 C 167.932 105.451 169.501 107.019 169.501 108.951 C 169.501 110.882 167.932 112.451 166.001 112.451 C 164.069 112.451 162.501 110.882 162.501 108.951 Z " fill="rgb(255,255,255)"/><path d=" M 135.079 158.732 C 135.079 156.8 136.647 155.232 138.579 155.232 C 140.511 155.232 142.079 156.8 142.079 158.732 C 142.079 160.663 140.511 162.232 138.579 162.232 C 136.647 162.232 135.079 160.663 135.079 158.732 Z " fill="rgb(255,255,255)"/><path d=" M 78.548 158.31 C 78.548 156.378 80.116 154.81 82.048 154.81 C 83.98 154.81 85.548 156.378 85.548 158.31 C 85.548 160.242 83.98 161.81 82.048 161.81 C 80.116 161.81 78.548 160.242 78.548 158.31 Z " fill="rgb(255,255,255)"/><path d=" M 50.493 110.638 C 50.493 108.706 52.062 107.138 53.993 107.138 C 55.925 107.138 57.493 108.706 57.493 110.638 C 57.493 112.57 55.925 114.138 53.993 114.138 C 52.062 114.138 50.493 112.57 50.493 110.638 Z " fill="rgb(255,255,255)"/></g><g id="Group"><path d="M 100.124 98.485 L 106.089 98.485 C 106.335 98.485 106.535 98.685 106.535 98.931 L 106.535 122.039 C 106.535 122.285 106.335 122.485 106.089 122.485 L 100.124 122.485 C 99.878 122.485 99.678 122.285 99.678 122.039 L 99.678 98.931 C 99.678 98.685 99.878 98.485 100.124 98.485 Z" style="stroke:none;fill:#EBEBEB;stroke-miterlimit:10;"/><path d="M 113.838 98.485 L 119.804 98.485 C 120.05 98.485 120.249 98.685 120.249 98.931 L 120.249 122.039 C 120.249 122.285 120.05 122.485 119.804 122.485 L 113.838 122.485 C 113.592 122.485 113.392 122.285 113.392 122.039 L 113.392 98.931 C 113.392 98.685 113.592 98.485 113.838 98.485 Z" style="stroke:none;fill:#EBEBEB;stroke-miterlimit:10;"/></g></g></svg>