<?xml version="1.0" standalone="no"?>
<!DOCTYPE svg PUBLIC "-//W3C//DTD SVG 20010904//EN"
 "http://www.w3.org/TR/2001/REC-SVG-20010904/DTD/svg10.dtd">
<svg version="1.0" xmlns="http://www.w3.org/2000/svg"
 width="700.000000pt" height="700.000000pt" viewBox="0 0 700.000000 700.000000"
 preserveAspectRatio="xMidYMid meet">
<metadata>
Created by potrace 1.11, written by Peter Selinger 2001-2013
</metadata>
<g transform="translate(0.000000,700.000000) scale(0.100000,-0.100000)"
fill="#000000" stroke="none">
<path d="M1160 6993 c-367 -38 -693 -222 -908 -511 -111 -150 -199 -355 -234
-547 -19 -103 -19 -4767 0 -4870 99 -541 506 -948 1047 -1047 103 -19 4767
-19 4870 0 541 99 948 506 1047 1047 19 103 19 4767 0 4870 -98 531 -474 917
-1017 1043 -63 14 -293 16 -2420 17 -1292 1 -2366 0 -2385 -2z m2555 -233
c586 -44 1117 -224 1595 -543 742 -494 1265 -1295 1409 -2157 40 -238 45 -305
45 -570 0 -275 -11 -399 -55 -625 -125 -638 -436 -1220 -900 -1684 -531 -531
-1190 -848 -1959 -943 -134 -17 -583 -17 -710 0 -567 74 -1008 235 -1450 528
-557 369 -991 904 -1239 1527 -153 384 -224 760 -225 1192 -1 234 9 357 45
569 170 1009 833 1900 1760 2366 518 261 1117 382 1684 340z"/>
<path d="M3195 6529 c-645 -62 -1294 -354 -1762 -793 -155 -144 -350 -363
-398 -445 -7 -12 220 -13 1609 -8 890 3 1620 8 1623 11 3 2 -154 284 -349 625
l-353 621 -140 -1 c-77 -1 -180 -6 -230 -10z"/>
<path d="M3840 6517 c0 -7 169 -304 887 -1562 708 -1240 713 -1249 728 -1228
40 60 715 1214 715 1224 0 16 -88 163 -158 264 -458 662 -1147 1117 -1922
1269 -139 27 -250 42 -250 33z"/>
<path d="M860 5028 c-77 -125 -188 -370 -251 -555 -119 -346 -166 -671 -156
-1068 7 -296 41 -509 122 -785 35 -118 109 -318 123 -332 4 -4 88 128 186 294
719 1219 941 1599 1177 2011 l268 467 -725 0 -724 0 -20 -32z"/>
<path d="M3274 5035 c-568 -83 -1045 -472 -1243 -1014 -117 -319 -120 -701 -9
-1025 186 -546 650 -940 1219 -1037 105 -18 150 -20 299 -16 262 8 419 46 645
158 155 76 285 170 410 294 124 125 218 255 294 410 111 224 150 383 158 640
6 193 -8 310 -57 480 -121 423 -415 773 -810 966 -281 137 -602 188 -906 144z
m111 -1550 l0 -380 -105 0 -105 0 -3 370 c-1 203 0 376 3 383 3 9 31 12 107
10 l103 -3 0 -380z m440 0 l0 -380 -105 0 -105 0 -3 370 c-1 203 0 376 3 383
3 9 31 12 107 10 l103 -3 0 -380z"/>
<path d="M6278 4680 c-15 -23 -975 -1652 -1258 -2135 -197 -335 -362 -626
-359 -629 2 -2 326 -7 719 -11 713 -7 715 -7 727 14 175 289 310 638 378 976
69 342 76 746 19 1095 -33 205 -117 502 -187 661 l-23 54 -16 -25z"/>
<path d="M1487 3163 c-35 -59 -200 -339 -366 -621 l-302 -512 72 -120 c418
-688 1101 -1187 1889 -1380 131 -32 319 -63 347 -58 15 2 -89 192 -582 1064
-530 936 -740 1305 -938 1642 l-55 94 -65 -109z"/>
<path d="M2728 1668 c11 -18 169 -298 352 -623 184 -324 335 -592 338 -595 2
-3 65 -4 140 -2 911 17 1756 436 2329 1155 30 37 53 70 51 71 -4 3 -2663 27
-3001 26 l-229 0 20 -32z"/>
</g>
</svg>
